<?xml version="1.0" encoding="UTF-8"?>
<svg version="1.1" xmlns="http://www.w3.org/2000/svg" width="100" height="100">
<path d="M0 0 C5.85757664 3.46129529 9.83970856 10.00203929 11.71875 16.4765625 C12.02393862 17.9974191 12.31012737 19.52225234 12.57421875 21.05078125 C12.93261088 23.18957697 12.93261088 23.18957697 14.5 25.5 C16.32969046 28.5494841 16.85051524 31.3526368 17.52734375 34.81640625 C17.97316851 37.15614074 17.97316851 37.15614074 19.125 39.875 C20.89058306 46.18065379 21.0305479 53.09043159 18 59 C17.01 59.66 16.02 60.32 15 61 C14.60516609 63.03426205 14.60516609 63.03426205 14.625 65.3125 C14.32976407 68.91900955 14.103348 69.8641712 11.8125 72.875 C6.55743183 76.84549595 2.68253353 78.79284296 -4 78 C-5.56014593 77.35553352 -7.10179999 76.66499851 -8.625 75.9375 C-11.96804867 74.32886163 -11.96804867 74.32886163 -15.625 74.0625 C-17.58680094 74.83689511 -19.51743573 75.68974351 -21.4375 76.5625 C-25.75940575 78.30642688 -28.62464141 78.92475793 -33.046875 77.203125 C-36.48711709 75.57089335 -39.63963587 74.06847337 -42 71 C-42.40041415 68.43734944 -42.438256 65.96613124 -42.49609375 63.375 C-42.78215671 60.84306525 -42.78215671 60.84306525 -44.95703125 59.3203125 C-45.63121094 58.88460937 -46.30539063 58.44890625 -47 58 C-49.56713409 53.63587204 -49.65448074 48.91639697 -49 44 C-48.16835759 41.43053879 -47.18747353 39.01244176 -46.0703125 36.5546875 C-44.25759086 32.22797234 -43.18357001 27.69799296 -41.9921875 23.16796875 C-39.27999398 13.27159613 -35.91477251 4.7854544 -26.875 -1 C-25.92625 -1.33 -24.9775 -1.66 -24 -2 C-23.05125 -2.391875 -22.1025 -2.78375 -21.125 -3.1875 C-13.08650815 -5.27750788 -7.27802977 -3.60748096 0 0 Z M-31.36328125 9.640625 C-33.84588471 13.50445874 -34.75031317 17.59114239 -35.5078125 22.08203125 C-36 24 -36 24 -38 26 C-38.60758175 28.29357053 -38.60758175 28.29357053 -39 30.875 C-39.79931246 35.65660132 -39.79931246 35.65660132 -41.0546875 37.8046875 C-42.51379127 41.19318468 -42.20817327 44.62876398 -42.125 48.25 C-42.11597656 48.99507812 -42.10695313 49.74015625 -42.09765625 50.5078125 C-42.07418358 52.33868059 -42.03831525 54.16938238 -42 56 C-40.35 56.66 -38.7 57.32 -37 58 C-37.33 61.3 -37.66 64.6 -38 68 C-37.34 68 -36.68 68 -36 68 C-36 68.66 -36 69.32 -36 70 C-32.83990467 71.05336511 -30.4446864 71.20032888 -27.125 71.25 C-26.09632812 71.27578125 -25.06765625 71.3015625 -24.0078125 71.328125 C-20.60929996 70.95737818 -18.83583474 69.83380737 -16 68 C-13.31337855 68.19658206 -11.54655501 68.67977173 -9.2265625 70.0390625 C-6.35324561 71.27912558 -4.05691457 71.2300199 -0.9375 71.1875 C0.62677734 71.17783203 0.62677734 71.17783203 2.22265625 71.16796875 C5.08614608 71.11482965 5.08614608 71.11482965 8 70 C9.38226016 67.23547967 9.09525387 64.9538637 9.0625 61.875 C9.05347656 60.77929688 9.04445312 59.68359375 9.03515625 58.5546875 C9.02355469 57.71164063 9.01195312 56.86859375 9 56 C10.65 56 12.3 56 14 56 C14.76625399 43.82917675 14.76625399 43.82917675 10 33 C9.0997015 30.04934427 8.58048676 27.02781896 8 24 C7.56305667 21.84970917 7.10397935 19.70381944 6.625 17.5625 C6.41101563 16.55316406 6.19703125 15.54382813 5.9765625 14.50390625 C5.23927457 11.85994759 5.23927457 11.85994759 2.953125 10.76953125 C2.30859375 10.51558594 1.6640625 10.26164062 1 10 C0.71125 9.38125 0.4225 8.7625 0.125 8.125 C-1.60864227 4.85034239 -3.57691466 3.22562549 -7 2 C-16.92776459 0.56612458 -24.76625395 1.70150905 -31.36328125 9.640625 Z " fill="#000000" transform="translate(64,13)"/>
</svg>
