<?xml version="1.0" encoding="UTF-8"?>
<svg version="1.1" xmlns="http://www.w3.org/2000/svg" width="100" height="100">
<path d="M0 0 C7.26 0 14.52 0 22 0 C22 0.66 22 1.32 22 2 C23.32 2.33 24.64 2.66 26 3 C26 3.66 26 4.32 26 5 C28.475 5.495 28.475 5.495 31 6 C31 6.66 31 7.32 31 8 C31.66 8 32.32 8 33 8 C33.495 10.475 33.495 10.475 34 13 C34.66 13 35.32 13 36 13 C37.17571451 16.67410785 37.07366746 20.16929183 37 24 C37.66 24 38.32 24 39 24 C39 24.99 39 25.98 39 27 C39.66 27 40.32 27 41 27 C41.495 32.445 41.495 32.445 42 38 C42.66 38 43.32 38 44 38 C45.04976964 41.14930893 45.10131595 43.38814456 45.0625 46.6875 C45.05347656 47.68136719 45.04445313 48.67523438 45.03515625 49.69921875 C45.02355469 50.45847656 45.01195313 51.21773437 45 52 C45.66 52 46.32 52 47 52 C47 52.99 47 53.98 47 55 C46.34 55 45.68 55 45 55 C45 57.64 45 60.28 45 63 C43.515 63.495 43.515 63.495 42 64 C41.67 67.63 41.34 71.26 41 75 C40.34 75 39.68 75 39 75 C39 75.66 39 76.32 39 77 C37.625 78.625 37.625 78.625 36 80 C35.34 80 34.68 80 34 80 C34 80.66 34 81.32 34 82 C28.06 82 22.12 82 16 82 C16 81.34 16 80.68 16 80 C14.68 80 13.36 80 12 80 C12 79.34 12 78.68 12 78 C11.01 78 10.02 78 9 78 C9 78.66 9 79.32 9 80 C8.01 80 7.02 80 6 80 C6 80.66 6 81.32 6 82 C-0.27 82 -6.54 82 -13 82 C-13.33 80.68 -13.66 79.36 -14 78 C-14.99 77.67 -15.98 77.34 -17 77 C-17 76.34 -17 75.68 -17 75 C-17.66 75 -18.32 75 -19 75 C-19.33 71.37 -19.66 67.74 -20 64 C-21.32 63.67 -22.64 63.34 -24 63 C-24 60.69 -24 58.38 -24 56 C-24.66 56 -25.32 56 -26 56 C-26 54.02 -26 52.04 -26 50 C-25.34 50 -24.68 50 -24 50 C-24 47.03 -24 44.06 -24 41 C-23.34 41 -22.68 41 -22 41 C-22 40.01 -22 39.02 -22 38 C-21.34 38 -20.68 38 -20 38 C-19.67 34.37 -19.34 30.74 -19 27 C-18.34 27 -17.68 27 -17 27 C-16.67 23.7 -16.34 20.4 -16 17 C-15.34 17 -14.68 17 -14 17 C-13.67 15.02 -13.34 13.04 -13 11 C-12.34 11 -11.68 11 -11 11 C-11 10.01 -11 9.02 -11 8 C-10.34 8 -9.68 8 -9 8 C-8.67 7.01 -8.34 6.02 -8 5 C-7.01 5 -6.02 5 -5 5 C-5 4.34 -5 3.68 -5 3 C-3.35 2.67 -1.7 2.34 0 2 C0 1.34 0 0.68 0 0 Z M3 8 C3 8.66 3 9.32 3 10 C2.2575 10.061875 1.515 10.12375 0.75 10.1875 C-2.87129113 11.25742693 -3.98712115 12.86885512 -6 16 C-6 16.99 -6 17.98 -6 19 C-6.66 19 -7.32 19 -8 19 C-8.33 22.63 -8.66 26.26 -9 30 C-9.66 30 -10.32 30 -11 30 C-11 32.97 -11 35.94 -11 39 C-11.66 39 -12.32 39 -13 39 C-13.495 41.475 -13.495 41.475 -14 44 C-14.66 44 -15.32 44 -16 44 C-16.19532961 45.7699868 -16.38098882 47.54104279 -16.5625 49.3125 C-16.66691406 50.29863281 -16.77132813 51.28476562 -16.87890625 52.30078125 C-17.16602527 55.09930347 -17.16602527 55.09930347 -16 58 C-14.35 58 -12.7 58 -11 58 C-11 58.99 -11 59.98 -11 61 C-10.34 61 -9.68 61 -9 61 C-9 62.65 -9 64.3 -9 66 C-9.66 66 -10.32 66 -11 66 C-11 67.98 -11 69.96 -11 72 C-10.34 72 -9.68 72 -9 72 C-9 72.66 -9 73.32 -9 74 C-6.72975032 74.08097324 -4.45867925 74.13917704 -2.1875 74.1875 C-0.29064453 74.23970703 -0.29064453 74.23970703 1.64453125 74.29296875 C4.93975673 74.29074498 4.93975673 74.29074498 6.94921875 72.61328125 C8.18192419 71.04157384 8.18192419 71.04157384 8 69 C9.98 69 11.96 69 14 69 C14 69.66 14 70.32 14 71 C15.00690898 72.76134548 15.00690898 72.76134548 17 74 C20.43080118 74.36398618 20.43080118 74.36398618 24.1875 74.1875 C25.45980469 74.16042969 26.73210937 74.13335937 28.04296875 74.10546875 C29.01878906 74.07066406 29.99460938 74.03585938 31 74 C31 73.34 31 72.68 31 72 C31.66 72 32.32 72 33 72 C33 70.02 33 68.04 33 66 C32.34 66 31.68 66 31 66 C31 64.35 31 62.7 31 61 C31.66 61 32.32 61 33 61 C33 60.01 33 59.02 33 58 C34.32 58 35.64 58 37 58 C37.02699725 55.72923158 37.04639453 53.45837179 37.0625 51.1875 C37.07410156 49.92292969 37.08570313 48.65835938 37.09765625 47.35546875 C37.16159116 44.00394763 37.16159116 44.00394763 36 41 C35.34 41 34.68 41 34 41 C33.505 35.555 33.505 35.555 33 30 C32.34 30 31.68 30 31 30 C30.505 24.555 30.505 24.555 30 19 C29.34 19 28.68 19 28 19 C28 18.01 28 17.02 28 16 C27.34 16 26.68 16 26 16 C25.505 14.515 25.505 14.515 25 13 C24.34 13 23.68 13 23 13 C22.505 11.515 22.505 11.515 22 10 C21.01 10 20.02 10 19 10 C19 9.34 19 8.68 19 8 C13.72 8 8.44 8 3 8 Z " fill="#000000" transform="translate(39,9)"/>
</svg>
